<svg width="265" height="32" viewBox="0 0 265 32" fill="none" xmlns="http://www.w3.org/2000/svg">
<path d="M73.6337 3.42303V7.42582H66.8992V25.377H62.6622V7.42582H55.9277V3.42303H73.6448H73.6337Z" fill="#350000"/>
<path d="M80.9705 10.0684H82.1523V14.2718H79.8555C78.8966 14.2718 78.2499 14.5171 77.9154 15.0077C77.5809 15.4983 77.4137 16.3569 77.4137 17.5722V25.3659H73.4443V10.0684H77.1795V12.6886H77.5029C77.7147 11.8858 78.1384 11.2502 78.774 10.7708C79.4095 10.2914 80.1342 10.0684 80.9816 10.0684H80.9705Z" fill="#350000"/>
<path d="M94.3723 10.0683H98.3417V25.3659H94.6065V23.1582H94.2831C93.8706 23.9833 93.2685 24.63 92.4769 25.0983C91.6852 25.5666 90.7932 25.8007 89.812 25.8007C88.2176 25.8007 86.9354 25.299 85.9542 24.2955C84.973 23.292 84.4824 21.9652 84.4824 20.2927V10.0572H88.4518V18.6537C88.4518 19.6126 88.7194 20.3931 89.2434 20.9728C89.7786 21.5638 90.4699 21.8537 91.3284 21.8537C92.0978 21.8537 92.7667 21.6084 93.3465 21.1289C93.9263 20.6495 94.2608 19.9805 94.3612 19.1108V10.046L94.3723 10.0683Z" fill="#350000"/>
<path d="M108.064 25.8119C106.202 25.8119 104.641 25.3213 103.404 24.3401C102.155 23.3589 101.43 22.0655 101.207 20.46H105.087C105.21 21.129 105.522 21.6418 106.046 22.0098C106.57 22.3777 107.25 22.5561 108.086 22.5561C108.834 22.5561 109.424 22.4112 109.848 22.1101C110.283 21.8202 110.495 21.4077 110.495 20.8725C110.495 20.0474 109.971 19.568 108.9 19.4342L106.191 19.0774C104.663 18.8655 103.504 18.3749 102.701 17.6168C101.909 16.8586 101.508 15.8662 101.508 14.6286C101.508 13.6251 101.753 12.7554 102.255 11.9972C102.757 11.2391 103.448 10.6593 104.34 10.2467C105.232 9.83418 106.269 9.63348 107.44 9.63348C109.201 9.63348 110.673 10.0906 111.855 11.0049C113.037 11.9192 113.717 13.1234 113.918 14.6398H110.183C110.082 14.0711 109.804 13.6251 109.346 13.2906C108.889 12.9561 108.265 12.7889 107.473 12.7889C106.782 12.7889 106.247 12.9227 105.845 13.2014C105.444 13.4802 105.243 13.8593 105.243 14.3499C105.243 15.2084 105.857 15.7213 107.094 15.8774L109.77 16.2565C111.242 16.4572 112.357 16.9255 113.104 17.6725C113.862 18.4195 114.241 19.4007 114.241 20.6161C114.241 21.653 113.985 22.5673 113.461 23.3478C112.937 24.1283 112.212 24.7415 111.286 25.1763C110.35 25.6112 109.268 25.823 108.031 25.823L108.064 25.8119Z" fill="#350000"/>
<path d="M126.015 13.5693H122.604V21.1624C122.604 21.6307 122.838 21.8648 123.306 21.8648H126.015V25.3658H122.247C121.009 25.3658 120.095 25.0759 119.515 24.485C118.935 23.8941 118.634 22.9798 118.634 21.7533V13.5693H115.869V10.0683H118.69V6.2439H122.604V10.0683H126.049L126.015 13.5693Z" fill="#350000"/>
<path d="M143.142 17.7282V18.754H131.847C132.003 19.9359 132.438 20.839 133.141 21.4857C133.843 22.1324 134.768 22.4558 135.906 22.4558C136.708 22.4558 137.4 22.2885 137.98 21.9429C138.559 21.5972 138.972 21.1289 139.228 20.5157H142.941C142.741 21.5749 142.317 22.5004 141.648 23.292C140.979 24.0836 140.143 24.708 139.128 25.1429C138.113 25.5889 136.987 25.8007 135.727 25.8007C134.211 25.8007 132.884 25.4662 131.725 24.7861C130.565 24.1059 129.673 23.1582 129.026 21.9429C128.391 20.7275 128.067 19.3115 128.067 17.7059C128.067 16.1004 128.38 14.662 129.004 13.4579C129.628 12.2537 130.509 11.3059 131.658 10.6369C132.795 9.95681 134.111 9.62231 135.605 9.62231C137.099 9.62231 138.437 9.95681 139.563 10.6369C140.689 11.3171 141.57 12.2537 142.194 13.4579C142.819 14.662 143.131 16.0781 143.131 17.7059L143.142 17.7282ZM135.616 12.9896C134.601 12.9896 133.765 13.2906 133.118 13.9038C132.472 14.5171 132.059 15.3645 131.881 16.4683H139.329C139.15 15.3756 138.749 14.5171 138.102 13.9038C137.467 13.2906 136.63 12.9896 135.616 12.9896Z" fill="#350000"/>
<path d="M156.912 3.42303H160.881V25.377H156.912V23.437H156.644C156.209 24.1617 155.63 24.7415 154.883 25.1763C154.136 25.6112 153.244 25.823 152.207 25.823C150.936 25.823 149.798 25.4885 148.817 24.8084C147.836 24.1283 147.067 23.1805 146.509 21.9652C145.952 20.7499 145.673 19.3338 145.673 17.7283C145.673 16.1227 145.952 14.6844 146.498 13.4802C147.044 12.276 147.814 11.3283 148.806 10.6593C149.798 9.97913 150.924 9.64464 152.207 9.64464C153.21 9.64464 154.08 9.85648 154.805 10.2579C155.54 10.6704 156.12 11.2168 156.555 11.9081H156.912V3.42303ZM153.299 22.0767C154.392 22.0767 155.273 21.6753 155.92 20.8837C156.566 20.092 156.89 19.0328 156.89 17.7171C156.89 16.4014 156.566 15.3533 155.92 14.5506C155.273 13.7589 154.403 13.3575 153.299 13.3575C152.196 13.3575 151.382 13.7589 150.724 14.5506C150.066 15.3422 149.743 16.4014 149.743 17.7171C149.743 19.0328 150.066 20.0809 150.724 20.8837C151.382 21.6753 152.24 22.0767 153.299 22.0767Z" fill="#350000"/>
<path d="M188.946 3.77985H191.031L185.177 25.3771H182.445L177.294 6.33316H176.915L171.764 25.3771H168.965L163.134 3.77985H165.286L170.292 22.8237H170.76L175.767 3.77985H178.442L183.415 22.8237H183.884L188.946 3.77985Z" fill="#350000"/>
<path d="M200.786 10.046C201.846 10.046 202.771 10.2802 203.552 10.7485C204.332 11.2168 204.945 11.8746 205.391 12.722C205.837 13.5694 206.049 14.5506 206.049 15.6656V25.3771H204.254V16.4906C204.254 15.0746 203.897 13.9373 203.184 13.0788C202.47 12.2203 201.522 11.7854 200.34 11.7854C198.924 11.7854 197.798 12.3875 196.94 13.5805C196.081 14.7736 195.657 16.368 195.657 18.3527V25.3882H193.862V3.77985H195.657V13.0453H195.981C196.494 12.1199 197.163 11.3952 198.01 10.8488C198.857 10.3136 199.772 10.0349 200.775 10.0349L200.786 10.046Z" fill="#350000"/>
<path d="M224.033 17.8955V18.5422H211.523C211.646 20.2481 212.215 21.6084 213.229 22.6342C214.244 23.6599 215.537 24.1617 217.087 24.1617C218.247 24.1617 219.261 23.8941 220.131 23.3477C221.001 22.8126 221.625 22.0878 222.004 21.1847H223.799C223.364 22.5004 222.55 23.5819 221.346 24.4516C220.142 25.3101 218.693 25.745 217.009 25.745C215.582 25.745 214.311 25.4216 213.229 24.7638C212.136 24.1059 211.289 23.1916 210.665 22.0098C210.04 20.8279 209.739 19.4565 209.739 17.8955C209.739 16.3345 210.04 14.9519 210.631 13.77C211.233 12.5882 212.07 11.6739 213.151 11.016C214.233 10.3582 215.481 10.0349 216.886 10.0349C218.291 10.0349 219.573 10.3582 220.633 11.016C221.703 11.6739 222.539 12.5882 223.13 13.77C223.732 14.9519 224.033 16.3234 224.033 17.8955ZM216.875 11.6293C215.359 11.6293 214.121 12.131 213.151 13.1457C212.181 14.1603 211.635 15.5094 211.523 17.2265H222.238C222.116 15.5206 221.58 14.1603 220.621 13.1457C219.663 12.131 218.414 11.6293 216.886 11.6293H216.875Z" fill="#350000"/>
<path d="M241.517 17.8955V18.5422H229.007C229.129 20.2481 229.698 21.6084 230.713 22.6342C231.727 23.6599 233.021 24.1617 234.57 24.1617C235.73 24.1617 236.745 23.8941 237.614 23.3477C238.484 22.8126 239.108 22.0878 239.487 21.1847H241.283C240.848 22.5004 240.034 23.5819 238.83 24.4516C237.625 25.3101 236.176 25.745 234.492 25.745C233.065 25.745 231.794 25.4216 230.713 24.7638C229.62 24.1059 228.772 23.1916 228.148 22.0098C227.524 20.8279 227.223 19.4565 227.223 17.8955C227.223 16.3345 227.524 14.9519 228.115 13.77C228.717 12.5882 229.553 11.6739 230.635 11.016C231.716 10.3582 232.965 10.0349 234.37 10.0349C235.775 10.0349 237.057 10.3582 238.116 11.016C239.186 11.6739 240.023 12.5882 240.614 13.77C241.216 14.9519 241.517 16.3234 241.517 17.8955ZM234.359 11.6293C232.842 11.6293 231.605 12.131 230.635 13.1457C229.664 14.1603 229.118 15.5094 229.007 17.2265H239.722C239.599 15.5206 239.064 14.1603 238.105 13.1457C237.146 12.131 235.897 11.6293 234.37 11.6293H234.359Z" fill="#350000"/>
<path d="M247.504 25.3771C246.055 25.3771 245.33 24.6523 245.33 23.2028V3.77985H247.125V23.0579C247.125 23.5262 247.359 23.7603 247.828 23.7603H249.712V25.3771H247.504Z" fill="#350000"/>
<path d="M258.531 25.7561C257.371 25.7561 256.323 25.5443 255.387 25.1206C254.439 24.6969 253.681 24.106 253.09 23.3589C252.499 22.6007 252.142 21.7311 251.997 20.7276H253.826C254.026 21.7645 254.55 22.6119 255.398 23.2474C256.256 23.883 257.304 24.2063 258.564 24.2063C259.746 24.2063 260.683 23.9387 261.385 23.4147C262.088 22.8795 262.444 22.177 262.444 21.2962C262.444 20.5715 262.199 20.0028 261.697 19.5903C261.196 19.1777 260.404 18.899 259.334 18.7652L256.858 18.4419C255.331 18.23 254.205 17.7952 253.502 17.1485C252.8 16.5018 252.443 15.6433 252.443 14.5617C252.443 13.2126 252.934 12.1199 253.915 11.2948C254.896 10.4697 256.178 10.0572 257.773 10.0572C259.367 10.0572 260.705 10.4697 261.787 11.2948C262.879 12.1199 263.515 13.2126 263.716 14.5617H261.954C261.798 13.6586 261.341 12.9338 260.582 12.3987C259.824 11.8635 258.888 11.5847 257.773 11.5847C256.658 11.5847 255.833 11.83 255.186 12.3318C254.539 12.8335 254.216 13.5136 254.216 14.3722C254.216 15.0969 254.472 15.6544 254.985 16.0335C255.498 16.4126 256.234 16.6802 257.193 16.814L259.668 17.1373C261.296 17.3492 262.467 17.784 263.18 18.4419C263.894 19.0997 264.251 19.9805 264.251 21.0732C264.251 22.4669 263.727 23.5931 262.69 24.4516C261.653 25.3102 260.27 25.745 258.542 25.745L258.531 25.7561Z" fill="#350000"/>
<path d="M34.107 0.958885C33.7056 0.356794 33.0366 0 32.323 0H15.2192C14.5056 0 13.8366 0.356794 13.4352 0.958885L9.81152 6.4H37.7418L34.1181 0.958885H34.107Z" fill="#F00B1F"/>
<path d="M43.2836 19.4676C42.1017 19.4676 40.9868 20.0362 40.2843 20.984L38.0989 23.9498C37.7422 24.4293 37.285 24.8195 36.7498 25.0871L36.4376 25.2432C35.9359 25.4773 35.3895 25.6111 34.8432 25.6111H12.6997C12.1422 25.6111 11.5958 25.4885 11.1052 25.2432L10.793 25.0871C10.2578 24.8195 9.8007 24.4293 9.4439 23.9498L7.25854 20.984C6.5561 20.0251 5.44111 19.4676 4.25923 19.4676H0V25.8676H7.82718C8.40697 25.8676 8.96446 26.0014 9.4885 26.2578L10.3805 26.6927C10.9157 26.9603 11.3728 27.3505 11.7408 27.83L13.692 30.4836C14.3944 31.4425 15.4983 32 16.6913 32H30.8739C32.0669 32 33.1707 31.4314 33.8732 30.4836L35.8244 27.83C36.1812 27.3505 36.6383 26.9603 37.1847 26.6927L38.0767 26.2578C38.5895 26.0014 39.1582 25.8676 39.738 25.8676H47.5652V19.4676H43.3059H43.2836Z" fill="#F00B1F"/>
<path d="M43.2836 6.6676C42.1017 6.6676 40.9868 7.23624 40.2843 8.18398L38.0989 11.1498C37.7422 11.6293 37.285 12.0195 36.7498 12.2871L36.4376 12.4432C35.9359 12.6774 35.3895 12.8112 34.8432 12.8112H12.6997C12.1422 12.8112 11.5958 12.6885 11.1052 12.4432L10.793 12.2871C10.2578 12.0195 9.8007 11.6293 9.4439 11.1498L7.25854 8.18398C6.5561 7.22509 5.44111 6.6676 4.25923 6.6676H0V13.0676H7.82718C8.40697 13.0676 8.96446 13.2014 9.4885 13.4578L10.3805 13.8927C10.9157 14.1603 11.3728 14.5505 11.7408 15.03L13.692 17.6836C14.3944 18.6425 15.4983 19.2 16.6913 19.2H30.8739C32.0669 19.2 33.1707 18.6314 33.8732 17.6836L35.8244 15.03C36.1812 14.5505 36.6383 14.1603 37.1847 13.8927L38.0767 13.4578C38.5895 13.2014 39.1582 13.0676 39.738 13.0676H47.5652V6.6676H43.3059H43.2836Z" fill="#F00B1F"/>
</svg>
