<svg width="48" height="32" viewBox="0 0 48 32" fill="none" xmlns="http://www.w3.org/2000/svg">
<path d="M34.107 0.958885C33.7056 0.356794 33.0366 0 32.323 0H15.2192C14.5056 0 13.8366 0.356794 13.4352 0.958885L9.81152 6.4H37.7418L34.1181 0.958885H34.107Z" fill="#F00B1F"/>
<path d="M43.2836 19.4676C42.1017 19.4676 40.9868 20.0362 40.2843 20.984L38.0989 23.9498C37.7422 24.4293 37.285 24.8195 36.7498 25.0871L36.4376 25.2432C35.9359 25.4773 35.3895 25.6111 34.8432 25.6111H12.6997C12.1422 25.6111 11.5958 25.4885 11.1052 25.2432L10.793 25.0871C10.2578 24.8195 9.8007 24.4293 9.4439 23.9498L7.25854 20.984C6.5561 20.0251 5.44111 19.4676 4.25923 19.4676H0V25.8676H7.82718C8.40697 25.8676 8.96446 26.0014 9.4885 26.2578L10.3805 26.6927C10.9157 26.9603 11.3728 27.3505 11.7408 27.83L13.692 30.4836C14.3944 31.4425 15.4983 32 16.6913 32H30.8739C32.0669 32 33.1707 31.4314 33.8732 30.4836L35.8244 27.83C36.1812 27.3505 36.6383 26.9603 37.1847 26.6927L38.0767 26.2578C38.5895 26.0014 39.1582 25.8676 39.738 25.8676H47.5652V19.4676H43.3059H43.2836Z" fill="#F00B1F"/>
<path d="M43.2836 6.6676C42.1017 6.6676 40.9868 7.23624 40.2843 8.18398L38.0989 11.1498C37.7422 11.6293 37.285 12.0195 36.7498 12.2871L36.4376 12.4432C35.9359 12.6774 35.3895 12.8112 34.8432 12.8112H12.6997C12.1422 12.8112 11.5958 12.6885 11.1052 12.4432L10.793 12.2871C10.2578 12.0195 9.8007 11.6293 9.4439 11.1498L7.25854 8.18398C6.5561 7.22509 5.44111 6.6676 4.25923 6.6676H0V13.0676H7.82718C8.40697 13.0676 8.96446 13.2014 9.4885 13.4578L10.3805 13.8927C10.9157 14.1603 11.3728 14.5505 11.7408 15.03L13.692 17.6836C14.3944 18.6425 15.4983 19.2 16.6913 19.2H30.8739C32.0669 19.2 33.1707 18.6314 33.8732 17.6836L35.8244 15.03C36.1812 14.5505 36.6383 14.1603 37.1847 13.8927L38.0767 13.4578C38.5895 13.2014 39.1582 13.0676 39.738 13.0676H47.5652V6.6676H43.3059H43.2836Z" fill="#F00B1F"/>
</svg>
