<svg width="20" height="20" viewBox="0 0 20 20" fill="none" xmlns="http://www.w3.org/2000/svg">
<path d="M18.6347 12.5353C18.2744 12.4251 17.8551 11.8459 17.6581 11.3492C17.501 10.9543 17.4624 10.5892 17.5417 10.2762C16.997 10.0624 16.2018 9.96567 15.5459 9.88603C15.3397 9.86094 15.1452 9.8373 14.9757 9.81221C14.7717 9.78167 14.5594 9.67876 14.3267 9.49734C14.0841 9.30825 13.8481 9.1032 13.6194 8.90501C13.1791 8.5225 12.7627 8.16141 12.3024 7.90145C9.35676 6.23829 6.61913 6.46192 4.16473 8.56614C3.77894 8.89738 3.29785 9.24283 2.65684 9.29738C2.43429 9.31629 2.21287 9.35483 1.97833 9.39556L1.85142 9.41738C1.60487 9.4592 1.54924 9.49265 1.53764 9.50901C1.51618 9.53956 1.50673 9.62392 1.50309 9.71374C1.518 9.71592 1.53254 9.71774 1.54673 9.71992C1.89651 9.76756 2.14887 9.8021 2.29724 10.0559C2.41396 10.2555 2.41396 10.5075 2.4136 11.0602C2.4136 11.0787 2.41287 11.0969 2.41251 11.1154C2.41178 11.1358 2.41105 11.1591 2.41214 11.1693C2.4536 11.5118 2.3856 11.7681 2.21105 11.9314C2.09942 12.0354 1.89291 12.1456 1.54018 12.0787C1.46418 12.0641 1.43873 12.0841 1.42636 12.094C1.36636 12.1409 1.29073 12.2972 1.27545 12.5834C1.26636 12.7543 1.28964 12.9681 1.31291 13.1757H3.5564C3.89636 12.0492 4.5316 11.3929 5.36029 11.3198C6.15589 11.2489 7.18891 11.5256 7.68342 13.1913C8.00665 13.1913 8.32884 13.191 8.64989 13.1906C9.03422 13.1899 9.42258 13.1895 9.81309 13.1895C10.6025 13.1895 11.4003 13.1913 12.1868 13.1986C12.2144 13.199 12.2322 13.1968 12.2417 13.1953C12.2504 13.1797 12.2664 13.1419 12.2893 13.0535C12.5853 11.9252 13.4881 11.2104 14.4855 11.3147C15.1437 11.3838 15.9883 11.77 16.3694 13.1881C16.5305 13.1884 16.6916 13.1892 16.8527 13.1899C17.4272 13.1924 18.0209 13.1953 18.6024 13.1819C18.6147 13.1815 18.6195 13.1797 18.6195 13.1797C18.6638 13.1422 18.6929 12.9208 18.7053 12.8259C18.7093 12.7961 18.7133 12.767 18.7173 12.7386C18.742 12.568 18.7278 12.5637 18.6347 12.5353ZM7.50596 9.31261C7.33796 9.30607 7.17145 9.30789 7.00927 9.31007C6.93145 9.3108 6.85364 9.31189 6.77582 9.31189C6.70091 9.31225 6.62782 9.31116 6.554 9.31007C6.39364 9.30825 6.22858 9.30643 6.06167 9.31334C6.06167 9.31043 6.06131 9.30752 6.06094 9.30461C6.03913 9.0497 6.1144 8.95738 6.2704 8.86756C6.72382 8.60574 7.11909 8.44469 7.50633 8.36505C7.49833 8.64792 7.49833 8.9508 7.50596 9.31261ZM10.7669 11.5794C10.7472 11.7386 10.6018 11.8517 10.4425 11.8321C10.2691 11.8106 10.0797 11.8125 9.86367 11.8372C9.8524 11.8386 9.84113 11.8394 9.83022 11.8394C9.6844 11.8394 9.55858 11.7299 9.54149 11.5816C9.52331 11.4219 9.63785 11.2776 9.79749 11.2594C10.0597 11.2292 10.2942 11.2278 10.5138 11.2551C10.5517 11.2597 10.5884 11.2718 10.6216 11.2906C10.6549 11.3094 10.6841 11.3346 10.7076 11.3647C10.7311 11.3949 10.7484 11.4293 10.7586 11.4662C10.7688 11.503 10.7716 11.5415 10.7669 11.5794ZM10.8901 9.31221C10.789 9.31185 10.6883 9.31185 10.5872 9.31185H10.5869C10.4716 9.31185 10.3531 9.31149 10.236 9.31076C9.97709 9.30967 9.71094 9.30858 9.44585 9.3133C9.4524 8.97294 9.4524 8.66061 9.44585 8.36247C10.0709 8.45229 10.6825 8.73225 11.3614 9.2377C11.3963 9.26352 11.4287 9.28825 11.4596 9.31189C11.2687 9.31298 11.0774 9.31261 10.8901 9.31221Z" fill="#212121"/>
</svg>
