<svg width="20" height="20" viewBox="0 0 20 20" fill="none" xmlns="http://www.w3.org/2000/svg">
<path d="M3.33325 14.9839V8.08944C3.33325 5.06164 3.33325 3.54774 4.30956 2.60712C5.28587 1.6665 6.85722 1.6665 9.99992 1.6665C13.1426 1.6665 14.714 1.6665 15.6903 2.60712C16.6666 3.54774 16.6666 5.06164 16.6666 8.08944V14.9839C16.6666 16.9054 16.6666 17.8662 16.0225 18.2101C14.7754 18.876 12.4359 16.6542 11.3249 15.9852C10.6806 15.5972 10.3584 15.4032 9.99992 15.4032C9.64142 15.4032 9.31926 15.5972 8.67492 15.9852C7.56392 16.6542 5.22448 18.876 3.97729 18.2101C3.33325 17.8662 3.33325 16.9054 3.33325 14.9839Z" stroke="#141B34" stroke-width="1.5" stroke-linecap="round" stroke-linejoin="round"/>
</svg>
