<svg width="20" height="20" viewBox="0 0 20 20" fill="none" xmlns="http://www.w3.org/2000/svg">
<path d="M5.0823 15.8335C3.99888 15.7269 3.18725 15.4015 2.64294 14.8572C1.66663 13.8809 1.66663 12.3095 1.66663 9.16683V8.75016C1.66663 5.60747 1.66663 4.03612 2.64294 3.05981C3.61925 2.0835 5.1906 2.0835 8.33329 2.0835H11.6666C14.8093 2.0835 16.3807 2.0835 17.357 3.05981C18.3333 4.03612 18.3333 5.60747 18.3333 8.75016V9.16683C18.3333 12.3095 18.3333 13.8809 17.357 14.8572C16.3807 15.8335 14.8093 15.8335 11.6666 15.8335C11.1996 15.8439 10.8276 15.8794 10.4621 15.9627C9.46348 16.1926 8.53873 16.7036 7.62485 17.1492C6.3227 17.7842 5.67162 18.1016 5.26304 17.8044C4.48137 17.2223 5.24541 15.4184 5.41663 14.5835" stroke="#141B34" stroke-width="1.5" stroke-linecap="round"/>
</svg>
