<svg width="36" height="36" viewBox="0 0 36 36" fill="none" xmlns="http://www.w3.org/2000/svg">
<path fill-rule="evenodd" clip-rule="evenodd" d="M17.9016 1.5C15.4401 3.56368 13.875 6.66158 13.875 10.125C13.875 16.3381 18.9119 21.375 25.125 21.375C27.8289 21.375 30.3099 20.4212 32.25 18.8316V29.625C32.25 31.9032 30.4032 33.75 28.125 33.75H7.125C4.84683 33.75 3 31.9032 3 29.625V5.625C3 3.34683 4.84683 1.5 7.125 1.5H17.9016ZM8.94638 17.625C8.11794 17.625 7.44638 18.2966 7.44638 19.125C7.44638 19.9534 8.11794 20.625 8.94638 20.625H13.8054C14.6338 20.625 15.3054 19.9534 15.3054 19.125C15.3054 18.2966 14.6338 17.625 13.8054 17.625H8.94638ZM7.44638 25.125C7.44638 24.2966 8.11794 23.625 8.94638 23.625H19.6806C20.5089 23.625 21.1806 24.2966 21.1806 25.125C21.1806 25.9534 20.5089 26.625 19.6806 26.625H8.94638C8.11794 26.625 7.44638 25.9534 7.44638 25.125Z" fill="#141B34"/>
<path fill-rule="evenodd" clip-rule="evenodd" d="M16.5 10.125C16.5 5.36154 20.3616 1.5 25.125 1.5C29.8884 1.5 33.75 5.36154 33.75 10.125C33.75 14.8885 29.8884 18.75 25.125 18.75C20.3616 18.75 16.5 14.8885 16.5 10.125ZM28.8452 7.01075C29.3225 7.40852 29.387 8.1179 28.9893 8.59521L25.2393 13.0952C25.037 13.338 24.7418 13.4845 24.426 13.4988C24.1103 13.5132 23.803 13.394 23.5795 13.1705L21.3295 10.9205C20.8902 10.4812 20.8902 9.76884 21.3295 9.3295C21.7689 8.89017 22.4811 8.89017 22.9205 9.3295L24.2994 10.7084L27.2607 7.15479C27.6585 6.67747 28.3679 6.61299 28.8452 7.01075Z" fill="#141B34"/>
</svg>
