<svg width="36" height="36" viewBox="0 0 36 36" fill="none" xmlns="http://www.w3.org/2000/svg">
<path d="M22.5 28.125C23.9497 28.125 25.125 26.9497 25.125 25.5V22.125H27.375V25.5C27.375 26.9497 28.5503 28.125 30 28.125H31.5C32.9497 28.125 34.125 26.9497 34.125 25.5V13.5C34.125 12.0503 32.9497 10.875 31.5 10.875H30C28.5503 10.875 27.375 12.0503 27.375 13.5V15.375H25.125V13.5C25.125 12.0503 23.9497 10.875 22.5 10.875H16.875V8.625H21C21.6213 8.625 22.125 8.12131 22.125 7.5C22.125 6.87869 21.6213 6.375 21 6.375H10.5C9.87869 6.375 9.375 6.87869 9.375 7.5C9.375 8.12131 9.87869 8.625 10.5 8.625H14.625V10.875H9C7.55025 10.875 6.375 12.0503 6.375 13.5V16.875H4.125V13.5C4.125 12.8787 3.62131 12.375 3 12.375C2.37869 12.375 1.875 12.8787 1.875 13.5V22.5C1.875 23.1213 2.37869 23.625 3 23.625C3.62131 23.625 4.125 23.1213 4.125 22.5V19.125H6.375V23.1972C6.37501 24.075 6.81369 24.8945 7.54395 25.3814L10.998 27.6842C11.4292 27.9716 11.9359 28.125 12.4541 28.125H22.5Z" fill="#141B34"/>
</svg>
