<svg width="36" height="36" viewBox="0 0 36 36" fill="none" xmlns="http://www.w3.org/2000/svg">
<path fill-rule="evenodd" clip-rule="evenodd" d="M20.0333 1.88252C21.9542 1.75407 23.6249 3.28761 23.625 5.26191V30.7385C23.625 32.7129 21.9543 34.2464 20.0333 34.1178L19.645 34.0695L7.64502 31.8782C6.03725 31.5843 4.87511 30.1791 4.875 28.5471V7.45332C4.8752 5.82143 6.03729 4.41608 7.64502 4.12227L19.645 1.93086L20.0333 1.88252ZM18 16.5002C17.1716 16.5002 16.5 17.1717 16.5 18.0002V18.0149L16.5073 18.1686C16.5841 18.9251 17.2233 19.5149 18 19.5149C18.7767 19.5149 19.4159 18.9251 19.4927 18.1686L19.5 18.0149V18.0002C19.5 17.1717 18.8284 16.5002 18 16.5002Z" fill="#141B34"/>
<path d="M28.125 28.1248V7.87476H26.625C25.7966 7.87476 25.125 7.20319 25.125 6.37476C25.125 5.54634 25.7966 4.87476 26.625 4.87476H28.125C29.7819 4.87476 31.125 6.2179 31.125 7.87476V28.1248C31.125 29.7816 29.7819 31.1248 28.125 31.1248H26.625C25.7966 31.1248 25.125 30.4533 25.125 29.6248C25.125 28.7964 25.7966 28.1248 26.625 28.1248H28.125Z" fill="#141B34"/>
</svg>
