<svg width="36" height="36" viewBox="0 0 36 36" fill="none" xmlns="http://www.w3.org/2000/svg">
<path fill-rule="evenodd" clip-rule="evenodd" d="M1.5 18C1.5 17.1716 2.17158 16.5 3 16.5H33C33.8284 16.5 34.5 17.1716 34.5 18C34.5 18.8284 33.8284 19.5 33 19.5H3C2.17158 19.5 1.5 18.8284 1.5 18Z" fill="#141B34"/>
<path fill-rule="evenodd" clip-rule="evenodd" d="M8.56063 12.4393C9.14643 13.0251 9.14646 13.9748 8.56068 14.5606L5.12132 18.0001L8.56063 21.4393C9.14643 22.0251 9.14646 22.9749 8.56068 23.5606C7.97491 24.1464 7.02516 24.1464 6.43937 23.5606L1.93936 19.0608C1.65805 18.7795 1.50002 18.3981 1.5 18.0001C1.49999 17.6023 1.65803 17.2209 1.93932 16.9395L6.43932 12.4394C7.0251 11.8536 7.97484 11.8535 8.56063 12.4393Z" fill="#141B34"/>
<path fill-rule="evenodd" clip-rule="evenodd" d="M27.4393 12.4393C28.0251 11.8535 28.9749 11.8536 29.5606 12.4394L34.0606 16.9395C34.342 17.2209 34.5 17.6023 34.5 18.0001C34.5 18.3981 34.3419 18.7795 34.0606 19.0608L29.5606 23.5606C28.9749 24.1464 28.0251 24.1464 27.4393 23.5606C26.8536 22.9749 26.8536 22.0251 27.4393 21.4393L30.8787 18.0001L27.4393 14.5606C26.8536 13.9748 26.8536 13.0251 27.4393 12.4393Z" fill="#141B34"/>
</svg>
