<svg width="16" height="16" viewBox="0 0 16 16" fill="none" xmlns="http://www.w3.org/2000/svg">
<path fill-rule="evenodd" clip-rule="evenodd" d="M9.08979 13.818V8.5105H10.9054L11.1778 6.44146H9.08979V5.12068C9.08979 4.52183 9.25864 4.11372 10.1352 4.11372L11.2512 4.11327V2.26265C11.0582 2.23805 10.3957 2.18164 9.62456 2.18164C8.01431 2.18164 6.9119 3.14569 6.9119 4.91576V6.44146H5.09082V8.5105H6.9119V13.818H9.08979Z" fill="#F00B1F"/>
<mask id="mask0_2161_31" style="mask-type:luminance" maskUnits="userSpaceOnUse" x="5" y="2" width="7" height="12">
<path fill-rule="evenodd" clip-rule="evenodd" d="M9.08979 13.818V8.5105H10.9054L11.1778 6.44146H9.08979V5.12068C9.08979 4.52183 9.25864 4.11372 10.1352 4.11372L11.2512 4.11327V2.26265C11.0582 2.23805 10.3957 2.18164 9.62456 2.18164C8.01431 2.18164 6.9119 3.14569 6.9119 4.91576V6.44146H5.09082V8.5105H6.9119V13.818H9.08979Z" fill="white"/>
</mask>
<g mask="url(#mask0_2161_31)">
</g>
</svg>
