<svg width="36" height="36" viewBox="0 0 36 36" fill="none" xmlns="http://www.w3.org/2000/svg">
<path fill-rule="evenodd" clip-rule="evenodd" d="M9 3C6.51473 3 4.5 5.01473 4.5 7.5V31.5C4.5 32.3284 5.17158 33 6 33H24C24.8284 33 25.5 32.3284 25.5 31.5V7.5C25.5 5.01473 23.4854 3 21 3H9ZM9 6C8.17158 6 7.5 6.67158 7.5 7.5V13.5H22.5V7.5C22.5 6.67158 21.8284 6 21 6H9ZM16.2863 20.2717C16.7124 19.5613 16.4821 18.64 15.7717 18.2137C15.0613 17.7876 14.14 18.018 13.7138 18.7283L11.4638 22.4783C11.1857 22.9418 11.1784 23.5188 11.4447 23.989C11.711 24.4593 12.2096 24.75 12.75 24.75H14.6007L13.7138 26.2283C13.2875 26.9387 13.5179 27.8601 14.2283 28.2863C14.9386 28.7126 15.86 28.4821 16.2863 27.7717L18.5363 24.0217C18.8144 23.5584 18.8216 22.9812 18.5553 22.511C18.2891 22.0407 17.7905 21.75 17.25 21.75H15.3993L16.2863 20.2717Z" fill="#141B34"/>
<path fill-rule="evenodd" clip-rule="evenodd" d="M1.5 31.5C1.5 30.6716 2.17158 30 3 30H27C27.8284 30 28.5 30.6716 28.5 31.5C28.5 32.3284 27.8284 33 27 33H3C2.17158 33 1.5 32.3284 1.5 31.5Z" fill="#141B34"/>
<path fill-rule="evenodd" clip-rule="evenodd" d="M28.4997 7.50035L29.8226 7.50012C30.959 7.49993 31.998 8.14197 32.5064 9.15848L34.3416 12.8291C34.4458 13.0374 34.5 13.2671 34.5 13.5V24.7499C34.5 26.821 32.821 28.4999 30.75 28.4999C28.679 28.4999 27 26.821 27 24.7499V22.4999H24C23.1716 22.4999 22.5 21.8284 22.5 20.9999C22.5 20.1715 23.1716 19.4999 24 19.4999H28.5C29.3284 19.4999 30 20.1715 30 20.9999V24.7499C30 25.1642 30.3358 25.4999 30.75 25.4999C31.1642 25.4999 31.5 25.1642 31.5 24.7499V13.8541L29.823 10.5001L28.5003 10.5003C27.6719 10.5005 27.0001 9.82902 27 9.0006C26.9999 8.17217 27.6712 7.50048 28.4997 7.50035Z" fill="#141B34"/>
</svg>
