<svg width="265" height="32" viewBox="0 0 265 32" fill="none" xmlns="http://www.w3.org/2000/svg">
<path d="M73.6335 3.42302V7.4258H66.899V25.377H62.6621V7.4258H55.9276V3.42302H73.6447H73.6335Z" fill="white"/>
<path d="M80.9701 10.0683H82.152V14.2718H79.8551C78.8962 14.2718 78.2495 14.5171 77.915 15.0077C77.5805 15.4983 77.4133 16.3568 77.4133 17.5722V25.3659H73.444V10.0683H77.1792V12.6885H77.5025C77.7144 11.8858 78.138 11.2502 78.7736 10.7708C79.4091 10.2913 80.1339 10.0683 80.9812 10.0683H80.9701Z" fill="white"/>
<path d="M94.3724 10.0683H98.3418V25.3658H94.6066V23.1582H94.2832C93.8707 23.9833 93.2686 24.63 92.477 25.0983C91.6853 25.5665 90.7934 25.8007 89.8122 25.8007C88.2177 25.8007 86.9355 25.299 85.9543 24.2955C84.9731 23.292 84.4825 21.9652 84.4825 20.2927V10.0571H88.4519V18.6537C88.4519 19.6125 88.7195 20.393 89.2435 20.9728C89.7787 21.5638 90.47 21.8537 91.3285 21.8537C92.0979 21.8537 92.7669 21.6084 93.3467 21.1289C93.9265 20.6495 94.2609 19.9805 94.3613 19.1108V10.046L94.3724 10.0683Z" fill="white"/>
<path d="M108.064 25.8118C106.202 25.8118 104.641 25.3212 103.404 24.3401C102.155 23.3589 101.43 22.0655 101.207 20.4599H105.087C105.21 21.1289 105.522 21.6418 106.046 22.0098C106.57 22.3777 107.25 22.5561 108.087 22.5561C108.834 22.5561 109.425 22.4111 109.848 22.1101C110.283 21.8202 110.495 21.4077 110.495 20.8725C110.495 20.0474 109.971 19.5679 108.901 19.4341L106.191 19.0773C104.664 18.8655 103.504 18.3749 102.701 17.6167C101.91 16.8585 101.508 15.8662 101.508 14.6286C101.508 13.6251 101.753 12.7554 102.255 11.9972C102.757 11.239 103.448 10.6592 104.34 10.2467C105.232 9.83414 106.269 9.63345 107.44 9.63345C109.202 9.63345 110.673 10.0906 111.855 11.0049C113.037 11.9192 113.717 13.1233 113.918 14.6397H110.183C110.082 14.0711 109.804 13.6251 109.347 13.2906C108.889 12.9561 108.265 12.7888 107.473 12.7888C106.782 12.7888 106.247 12.9226 105.845 13.2014C105.444 13.4801 105.243 13.8592 105.243 14.3498C105.243 15.2084 105.857 15.7212 107.094 15.8773L109.77 16.2564C111.242 16.4571 112.357 16.9254 113.104 17.6725C113.862 18.4195 114.241 19.4007 114.241 20.616C114.241 21.653 113.985 22.5672 113.461 23.3477C112.937 24.1282 112.212 24.7415 111.287 25.1763C110.35 25.6111 109.268 25.823 108.031 25.823L108.064 25.8118Z" fill="white"/>
<path d="M126.016 13.5693H122.604V21.1624C122.604 21.6307 122.838 21.8648 123.306 21.8648H126.016V25.3659H122.247C121.009 25.3659 120.095 25.076 119.515 24.485C118.935 23.8941 118.634 22.9798 118.634 21.7533V13.5693H115.869V10.0683H118.69V6.2439H122.604V10.0683H126.049L126.016 13.5693Z" fill="white"/>
<path d="M143.142 17.7282V18.754H131.847C132.003 19.9359 132.438 20.839 133.14 21.4857C133.843 22.1324 134.768 22.4557 135.905 22.4557C136.708 22.4557 137.399 22.2885 137.979 21.9428C138.559 21.5972 138.972 21.1289 139.228 20.5156H142.941C142.74 21.5749 142.316 22.5003 141.648 23.292C140.979 24.0836 140.142 24.708 139.128 25.1428C138.113 25.5888 136.987 25.8007 135.727 25.8007C134.211 25.8007 132.884 25.4662 131.724 24.786C130.565 24.1059 129.673 23.1582 129.026 21.9428C128.39 20.7275 128.067 19.3115 128.067 17.7059C128.067 16.1003 128.379 14.662 129.004 13.4578C129.628 12.2536 130.509 11.3059 131.657 10.6369C132.795 9.95676 134.11 9.62227 135.604 9.62227C137.098 9.62227 138.436 9.95676 139.562 10.6369C140.689 11.317 141.569 12.2536 142.194 13.4578C142.818 14.662 143.13 16.078 143.13 17.7059L143.142 17.7282ZM135.615 12.9895C134.601 12.9895 133.765 13.2906 133.118 13.9038C132.471 14.517 132.059 15.3644 131.88 16.4683H139.328C139.15 15.3756 138.749 14.517 138.102 13.9038C137.466 13.2906 136.63 12.9895 135.615 12.9895Z" fill="white"/>
<path d="M156.912 3.423H160.881V25.377H156.912V23.4369H156.644C156.209 24.1617 155.63 24.7415 154.882 25.1763C154.135 25.6111 153.243 25.823 152.207 25.823C150.935 25.823 149.798 25.4885 148.817 24.8084C147.836 24.1282 147.066 23.1805 146.509 21.9652C145.951 20.7498 145.673 19.3338 145.673 17.7282C145.673 16.1226 145.951 14.6843 146.498 13.4801C147.044 12.276 147.814 11.3282 148.806 10.6592C149.798 9.97909 150.924 9.6446 152.207 9.6446C153.21 9.6446 154.08 9.85645 154.804 10.2578C155.54 10.6704 156.12 11.2167 156.555 11.908H156.912V3.423ZM153.299 22.0767C154.392 22.0767 155.273 21.6753 155.919 20.8836C156.566 20.092 156.889 19.0328 156.889 17.7171C156.889 16.4014 156.566 15.3533 155.919 14.5505C155.273 13.7589 154.403 13.3575 153.299 13.3575C152.195 13.3575 151.381 13.7589 150.724 14.5505C150.066 15.3422 149.742 16.4014 149.742 17.7171C149.742 19.0328 150.066 20.0808 150.724 20.8836C151.381 21.6753 152.24 22.0767 153.299 22.0767Z" fill="white"/>
<path d="M188.945 3.77982H191.03L185.177 25.377H182.445L177.294 6.33313H176.915L171.763 25.377H168.965L163.133 3.77982H165.285L170.292 22.8237H170.76L175.766 3.77982H178.442L183.415 22.8237H183.883L188.945 3.77982Z" fill="white"/>
<path d="M200.786 10.046C201.845 10.046 202.771 10.2802 203.551 10.7485C204.332 11.2168 204.945 11.8746 205.391 12.722C205.837 13.5694 206.049 14.5505 206.049 15.6655V25.377H204.254V16.4906C204.254 15.0746 203.897 13.9373 203.183 13.0788C202.47 12.2202 201.522 11.7854 200.34 11.7854C198.924 11.7854 197.798 12.3875 196.94 13.5805C196.081 14.7735 195.657 16.368 195.657 18.3526V25.3882H193.862V3.77982H195.657V13.0453H195.981C196.494 12.1199 197.163 11.3951 198.01 10.8488C198.857 10.3136 199.772 10.0349 200.775 10.0349L200.786 10.046Z" fill="white"/>
<path d="M224.034 17.8954V18.5421H211.523C211.646 20.2481 212.215 21.6083 213.229 22.6341C214.244 23.6599 215.537 24.1616 217.087 24.1616C218.247 24.1616 219.261 23.894 220.131 23.3477C221.001 22.8125 221.625 22.0878 222.004 21.1846H223.799C223.365 22.5003 222.551 23.5819 221.346 24.4515C220.142 25.3101 218.693 25.7449 217.009 25.7449C215.582 25.7449 214.311 25.4216 213.229 24.7637C212.137 24.1059 211.289 23.1916 210.665 22.0097C210.041 20.8278 209.74 19.4564 209.74 17.8954C209.74 16.3345 210.041 14.9519 210.631 13.77C211.234 12.5881 212.07 11.6738 213.151 11.016C214.233 10.3582 215.482 10.0348 216.887 10.0348C218.291 10.0348 219.574 10.3582 220.633 11.016C221.703 11.6738 222.539 12.5881 223.13 13.77C223.733 14.9519 224.034 16.3233 224.034 17.8954ZM216.875 11.6292C215.359 11.6292 214.121 12.131 213.151 13.1456C212.181 14.1602 211.635 15.5094 211.523 17.2265H222.238C222.116 15.5205 221.581 14.1602 220.622 13.1456C219.663 12.131 218.414 11.6292 216.887 11.6292H216.875Z" fill="white"/>
<path d="M241.516 17.8954V18.5421H229.006C229.129 20.2481 229.698 21.6083 230.712 22.6341C231.727 23.6599 233.02 24.1616 234.57 24.1616C235.73 24.1616 236.744 23.894 237.614 23.3477C238.484 22.8125 239.108 22.0878 239.487 21.1846H241.282C240.847 22.5003 240.034 23.5819 238.829 24.4515C237.625 25.3101 236.176 25.7449 234.492 25.7449C233.065 25.7449 231.794 25.4216 230.712 24.7637C229.62 24.1059 228.772 23.1916 228.148 22.0097C227.523 20.8278 227.222 19.4564 227.222 17.8954C227.222 16.3345 227.523 14.9519 228.114 13.77C228.716 12.5881 229.553 11.6738 230.634 11.016C231.716 10.3582 232.965 10.0348 234.369 10.0348C235.774 10.0348 237.057 10.3582 238.116 11.016C239.186 11.6738 240.022 12.5881 240.613 13.77C241.215 14.9519 241.516 16.3233 241.516 17.8954ZM234.358 11.6292C232.842 11.6292 231.604 12.131 230.634 13.1456C229.664 14.1602 229.118 15.5094 229.006 17.2265H239.721C239.599 15.5205 239.064 14.1602 238.105 13.1456C237.146 12.131 235.897 11.6292 234.369 11.6292H234.358Z" fill="white"/>
<path d="M247.504 25.377C246.055 25.377 245.33 24.6523 245.33 23.2028V3.77982H247.125V23.0579C247.125 23.5262 247.359 23.7603 247.827 23.7603H249.712V25.377H247.504Z" fill="white"/>
<path d="M258.531 25.7561C257.372 25.7561 256.323 25.5443 255.387 25.1206C254.439 24.6969 253.681 24.1059 253.09 23.3589C252.499 22.6007 252.142 21.731 251.997 20.7275H253.826C254.027 21.7645 254.551 22.6119 255.398 23.2474C256.257 23.8829 257.305 24.2063 258.565 24.2063C259.746 24.2063 260.683 23.9387 261.385 23.4147C262.088 22.8795 262.445 22.177 262.445 21.2962C262.445 20.5714 262.199 20.0028 261.698 19.5903C261.196 19.1777 260.404 18.899 259.334 18.7652L256.859 18.4418C255.331 18.23 254.205 17.7951 253.503 17.1485C252.8 16.5018 252.443 15.6432 252.443 14.5617C252.443 13.2126 252.934 12.1199 253.915 11.2948C254.896 10.4697 256.179 10.0572 257.773 10.0572C259.367 10.0572 260.705 10.4697 261.787 11.2948C262.88 12.1199 263.515 13.2126 263.716 14.5617H261.954C261.798 13.6586 261.341 12.9338 260.583 12.3986C259.825 11.8634 258.888 11.5847 257.773 11.5847C256.658 11.5847 255.833 11.83 255.186 12.3317C254.539 12.8335 254.216 13.5136 254.216 14.3721C254.216 15.0969 254.473 15.6544 254.985 16.0335C255.498 16.4126 256.234 16.6802 257.193 16.814L259.668 17.1373C261.296 17.3491 262.467 17.784 263.181 18.4418C263.894 19.0997 264.251 19.9805 264.251 21.0732C264.251 22.4669 263.727 23.5931 262.69 24.4516C261.653 25.3101 260.27 25.745 258.542 25.745L258.531 25.7561Z" fill="white"/>
<path d="M34.1074 0.958912C33.706 0.356821 33.037 2.67029e-05 32.3234 2.67029e-05H15.2196C14.506 2.67029e-05 13.837 0.356821 13.4356 0.958912L9.81189 6.40003H37.7422L34.1185 0.958912H34.1074Z" fill="#F00B1F"/>
<path d="M43.2836 19.4676C42.1017 19.4676 40.9868 20.0363 40.2843 20.984L38.0989 23.9499C37.7422 24.4293 37.285 24.8196 36.7498 25.0871L36.4376 25.2432C35.9359 25.4774 35.3895 25.6112 34.8432 25.6112H12.6997C12.1422 25.6112 11.5958 25.4885 11.1052 25.2432L10.793 25.0871C10.2578 24.8196 9.8007 24.4293 9.4439 23.9499L7.25854 20.984C6.5561 20.0251 5.44111 19.4676 4.25923 19.4676H0V25.8676H7.82718C8.40697 25.8676 8.96446 26.0014 9.4885 26.2579L10.3805 26.6927C10.9157 26.9603 11.3728 27.3506 11.7408 27.83L13.692 30.4837C14.3944 31.4425 15.4983 32 16.6913 32H30.8739C32.0669 32 33.1707 31.4314 33.8732 30.4837L35.8244 27.83C36.1812 27.3506 36.6383 26.9603 37.1847 26.6927L38.0767 26.2579C38.5895 26.0014 39.1582 25.8676 39.738 25.8676H47.5652V19.4676H43.3059H43.2836Z" fill="#F00B1F"/>
<path d="M43.2836 6.66762C42.1017 6.66762 40.9868 7.23626 40.2843 8.18399L38.0989 11.1498C37.7422 11.6293 37.285 12.0195 36.7498 12.2871L36.4376 12.4432C35.9359 12.6774 35.3895 12.8112 34.8432 12.8112H12.6997C12.1422 12.8112 11.5958 12.6885 11.1052 12.4432L10.793 12.2871C10.2578 12.0195 9.8007 11.6293 9.4439 11.1498L7.25854 8.18399C6.5561 7.22511 5.44111 6.66762 4.25923 6.66762H0V13.0676H7.82718C8.40697 13.0676 8.96446 13.2014 9.4885 13.4579L10.3805 13.8927C10.9157 14.1603 11.3728 14.5505 11.7408 15.03L13.692 17.6836C14.3944 18.6425 15.4983 19.2 16.6913 19.2H30.8739C32.0669 19.2 33.1707 18.6314 33.8732 17.6836L35.8244 15.03C36.1812 14.5505 36.6383 14.1603 37.1847 13.8927L38.0767 13.4579C38.5895 13.2014 39.1582 13.0676 39.738 13.0676H47.5652V6.66762H43.3059H43.2836Z" fill="#F00B1F"/>
</svg>
