<svg width="20" height="20" viewBox="0 0 20 20" fill="none" xmlns="http://www.w3.org/2000/svg">
<path d="M10 8.18164V12.0543H15.3818C15.1454 13.2997 14.4363 14.3543 13.3727 15.0634L16.6181 17.5815C18.509 15.8362 19.5999 13.2726 19.5999 10.2272C19.5999 9.51809 19.5363 8.83622 19.418 8.18175L10 8.18164Z" fill="#4285F4"/>
<path d="M4.39565 11.9036L3.66369 12.4639L1.07275 14.482C2.71819 17.7455 6.09064 20.0001 9.99967 20.0001C12.6996 20.0001 14.9632 19.1092 16.6177 17.582L13.3723 15.0638C12.4814 15.6638 11.3451 16.0275 9.99967 16.0275C7.39971 16.0275 5.1907 14.273 4.39974 11.9093L4.39565 11.9036Z" fill="#34A853"/>
<path d="M1.07264 5.51807C0.390865 6.86344 0 8.38162 0 9.99975C0 11.6179 0.390865 13.1361 1.07264 14.4814C1.07264 14.4905 4.39995 11.8997 4.39995 11.8997C4.19995 11.2997 4.08173 10.6634 4.08173 9.99964C4.08173 9.33593 4.19995 8.69962 4.39995 8.09963L1.07264 5.51807Z" fill="#FBBC05"/>
<path d="M9.99988 3.98175C11.4726 3.98175 12.7817 4.49082 13.8271 5.47263L16.6907 2.60908C14.9543 0.990954 12.6999 0 9.99988 0C6.09085 0 2.71819 2.24541 1.07275 5.51809L4.39996 8.09987C5.19081 5.73625 7.39991 3.98175 9.99988 3.98175Z" fill="#EA4335"/>
</svg>
