<svg width="20" height="20" viewBox="0 0 20 20" fill="none" xmlns="http://www.w3.org/2000/svg">
<path d="M7.46807 15.7589L7.93238 15.1699L7.46807 15.7589ZM9.99996 4.58374L9.45959 5.10384C9.60098 5.25073 9.79608 5.33374 9.99996 5.33374C10.2038 5.33374 10.3989 5.25073 10.5403 5.10384L9.99996 4.58374ZM12.5318 15.7589L12.9962 16.3479L12.5318 15.7589ZM7.46807 15.7589L7.93238 15.1699C6.66192 14.1684 5.29467 13.2062 4.20866 11.9833C3.14837 10.7894 2.41663 9.40628 2.41663 7.61413H1.66663H0.916626C0.916626 9.87441 1.85965 11.5972 3.08709 12.9794C4.28883 14.3326 5.8223 15.4166 7.00376 16.3479L7.46807 15.7589ZM1.66663 7.61413H2.41663C2.41663 5.8685 3.40282 4.41111 4.73889 3.80039C6.02768 3.21128 7.77661 3.35528 9.45959 5.10384L9.99996 4.58374L10.5403 4.06364C8.47344 1.91622 6.0557 1.54919 4.1153 2.43616C2.22217 3.30151 0.916626 5.3073 0.916626 7.61413H1.66663ZM7.46807 15.7589L7.00376 16.3479C7.42947 16.6835 7.89443 17.0479 8.36758 17.3244C8.84048 17.6007 9.39289 17.8332 9.99996 17.8332V17.0832V16.3332C9.77369 16.3332 9.49277 16.2446 9.12437 16.0293C8.75621 15.8142 8.37189 15.5164 7.93238 15.1699L7.46807 15.7589ZM12.5318 15.7589L12.9962 16.3479C14.1776 15.4166 15.7111 14.3326 16.9128 12.9794C18.1403 11.5972 19.0833 9.87441 19.0833 7.61413H18.3333H17.5833C17.5833 9.40628 16.8516 10.7894 15.7913 11.9833C14.7052 13.2062 13.338 14.1684 12.0675 15.1699L12.5318 15.7589ZM18.3333 7.61413H19.0833C19.0833 5.3073 17.7778 3.30151 15.8846 2.43616C13.9442 1.54919 11.5265 1.91622 9.45959 4.06364L9.99996 4.58374L10.5403 5.10384C12.2233 3.35528 13.9722 3.21128 15.261 3.80039C16.5971 4.41111 17.5833 5.8685 17.5833 7.61413H18.3333ZM12.5318 15.7589L12.0675 15.1699C11.628 15.5164 11.2437 15.8142 10.8756 16.0293C10.5072 16.2446 10.2262 16.3332 9.99996 16.3332V17.0832V17.8332C10.607 17.8332 11.1594 17.6007 11.6323 17.3244C12.1055 17.0479 12.5704 16.6835 12.9962 16.3479L12.5318 15.7589Z" fill="#1C274C"/>
</svg>
