<svg width="36" height="36" viewBox="0 0 36 36" fill="none" xmlns="http://www.w3.org/2000/svg">
<path d="M18 1.87183C26.9055 1.87183 34.125 9.09124 34.125 17.9969C34.125 19.4589 33.9831 20.9291 33.2696 22.1087C32.5043 23.3735 31.2168 24.1019 29.4096 24.3602C27.5806 24.6215 26.0141 24.6224 24.7398 24.6224H24.7221C23.3895 24.6224 22.5149 24.6317 21.8408 24.8274C21.2829 24.9896 20.8665 25.2792 20.5064 25.9992C20.2071 26.5979 20.2182 26.9829 20.2968 27.2825C20.3946 27.6536 20.6198 28.0073 20.9853 28.5495C21.0014 28.5734 21.0185 28.5981 21.0351 28.6227C21.4782 29.2784 22.125 30.2357 22.125 31.4969C22.125 32.1177 21.9591 32.6943 21.5727 33.158C21.1971 33.6086 20.7083 33.8369 20.2764 33.9578C19.6106 34.1441 18.8034 34.1327 18.2637 34.1247C18.1665 34.1234 18.0774 34.1219 18 34.1219C9.0944 34.1219 1.875 26.9024 1.875 17.9969C1.875 9.09124 9.09441 1.87183 18 1.87183ZM11.9634 22.113C11.7512 21.3123 10.9301 20.8346 10.1294 21.0467L10.1162 21.051C9.31545 21.2633 8.83759 22.0842 9.0498 22.8851C9.26208 23.6858 10.0845 24.1622 10.8853 23.9499L10.897 23.9471C11.6977 23.7348 12.1754 22.9137 11.9634 22.113ZM24.75 10.8718C22.8861 10.8718 21.375 12.3829 21.375 14.2468C21.375 16.1108 22.8861 17.6219 24.75 17.6219C26.6139 17.6219 28.125 16.1108 28.125 14.2468C28.125 12.3829 26.6139 10.8718 24.75 10.8718ZM14.25 9.37183C12.386 9.37183 10.875 10.8829 10.875 12.7468C10.875 14.6108 12.386 16.1219 14.25 16.1219C16.1139 16.1219 17.625 14.6108 17.625 12.7468C17.625 10.8829 16.1139 9.37183 14.25 9.37183Z" fill="#141B34"/>
</svg>
