<svg width="16" height="16" viewBox="0 0 16 16" fill="none" xmlns="http://www.w3.org/2000/svg">
<path d="M1.33325 4L5.94193 6.61131C7.64098 7.57401 8.35885 7.57401 10.0579 6.61131L14.6666 4" stroke="white" stroke-width="1.5" stroke-linejoin="round"/>
<path d="M1.34376 8.98391C1.38735 11.0276 1.40914 12.0494 2.16322 12.8064C2.91731 13.5634 3.96681 13.5897 6.0658 13.6425C7.35946 13.675 8.64038 13.675 9.93404 13.6425C12.033 13.5897 13.0825 13.5634 13.8366 12.8064C14.5907 12.0494 14.6125 11.0276 14.6561 8.98391C14.6701 8.32679 14.6701 7.67355 14.6561 7.01643C14.6125 4.97274 14.5907 3.95089 13.8366 3.19394C13.0825 2.43698 12.033 2.41061 9.93404 2.35788C8.64038 2.32537 7.35946 2.32537 6.0658 2.35787C3.9668 2.41061 2.91731 2.43697 2.16322 3.19393C1.40913 3.95088 1.38734 4.97273 1.34376 7.01642C1.32975 7.67354 1.32975 8.32679 1.34376 8.98391Z" stroke="white" stroke-width="1.5" stroke-linejoin="round"/>
</svg>
