<svg width="36" height="36" viewBox="0 0 36 36" fill="none" xmlns="http://www.w3.org/2000/svg">
<path d="M19.5 15.75C19.5 14.9216 18.8284 14.25 18 14.25C17.1716 14.25 16.5 14.9216 16.5 15.75V23.5061C14.7522 24.1238 13.5 25.7907 13.5 27.75C13.5 30.2354 15.5146 32.25 18 32.25C20.4854 32.25 22.5 30.2354 22.5 27.75C22.5 25.7907 21.2478 24.1238 19.5 23.5061V15.75Z" fill="#141B34"/>
<path fill-rule="evenodd" clip-rule="evenodd" d="M18 6.75C10.5442 6.75 4.5 12.7942 4.5 20.25C4.5 21.0784 3.82842 21.75 3 21.75C2.17158 21.75 1.5 21.0784 1.5 20.25C1.5 11.1373 8.88731 3.75 18 3.75C27.1126 3.75 34.5 11.1373 34.5 20.25C34.5 21.0784 33.8284 21.75 33 21.75C32.1716 21.75 31.5 21.0784 31.5 20.25C31.5 12.7942 25.4559 6.75 18 6.75Z" fill="#141B34"/>
</svg>
