<svg width="16" height="16" viewBox="0 0 16 16" fill="none" xmlns="http://www.w3.org/2000/svg">
<path d="M10.7339 8.90601L10.2051 8.37418V8.37418L10.7339 8.90601ZM11.0375 8.60411L11.5663 9.13595V9.13595L11.0375 8.60411ZM12.6486 8.39294L12.2904 9.05187H12.2904L12.6486 8.39294ZM13.9223 9.08532L13.5641 9.74425L13.9223 9.08532ZM14.2812 11.2553L14.81 11.7871V11.7871L14.2812 11.2553ZM13.3342 12.197L12.8053 11.6651V11.6651L13.3342 12.197ZM12.4509 12.6434L12.5205 13.3902H12.5205L12.4509 12.6434ZM5.87699 9.81771L6.40581 9.28587L5.87699 9.81771ZM2.66867 3.8304L1.91988 3.87296V3.87296L2.66867 3.8304ZM6.98509 4.79825L7.51391 5.33009V5.33009L6.98509 4.79825ZM7.08958 3.02899L7.68997 2.57952V2.57952L7.08958 3.02899ZM6.24892 1.90605L5.64852 2.35552L5.64852 2.35552L6.24892 1.90605ZM4.17438 1.71655L4.7032 2.24839V2.24839L4.17438 1.71655ZM3.12798 2.75701L2.59916 2.22517L2.59916 2.22517L3.12798 2.75701ZM8.04216 7.66482L8.57098 7.13299L8.04216 7.66482ZM10.7339 8.90601L11.2627 9.43785L11.5663 9.13595L11.0375 8.60411L10.5087 8.07227L10.2051 8.37418L10.7339 8.90601ZM12.6486 8.39294L12.2904 9.05187L13.5641 9.74425L13.9223 9.08532L14.2805 8.42639L13.0068 7.73401L12.6486 8.39294ZM14.2812 11.2553L13.7524 10.7235L12.8053 11.6651L13.3342 12.197L13.863 12.7288L14.81 11.7871L14.2812 11.2553ZM12.4509 12.6434L12.3813 11.8967C11.4746 11.9812 9.05167 11.9167 6.40581 9.28587L5.87699 9.81771L5.34817 10.3495C8.36468 13.3489 11.2547 13.5082 12.5205 13.3902L12.4509 12.6434ZM5.87699 9.81771L6.40581 9.28587C3.86931 6.76378 3.46724 4.66371 3.41746 3.78785L2.66867 3.8304L1.91988 3.87296C1.9903 5.11205 2.54514 7.56243 5.34817 10.3495L5.87699 9.81771ZM6.79388 4.98838L7.3227 5.52022L7.51391 5.33009L6.98509 4.79825L6.45628 4.26642L6.26507 4.45654L6.79388 4.98838ZM7.08958 3.02899L7.68997 2.57952L6.84931 1.45658L6.24892 1.90605L5.64852 2.35552L6.48918 3.47846L7.08958 3.02899ZM4.17438 1.71655L3.64556 1.18471L2.59916 2.22517L3.12798 2.75701L3.6568 3.28885L4.7032 2.24839L4.17438 1.71655ZM6.79388 4.98838C6.26507 4.45654 6.26435 4.45725 6.26364 4.45796C6.2634 4.45821 6.26268 4.45893 6.26219 4.45941C6.26122 4.46039 6.26024 4.46138 6.25925 4.46239C6.25726 4.4644 6.25523 4.46649 6.25315 4.46865C6.249 4.47296 6.24467 4.47756 6.24017 4.48244C6.23118 4.4922 6.22154 4.50311 6.2114 4.51521C6.19114 4.5394 6.16884 4.56837 6.14581 4.60236C6.09963 4.67053 6.05089 4.75831 6.01006 4.86668C5.92637 5.08879 5.88595 5.37064 5.93814 5.70702C6.03947 6.36017 6.47936 7.16855 7.51334 8.19666L8.04216 7.66482L8.57098 7.13299C7.63496 6.20228 7.45072 5.67243 7.42041 5.47707C7.40677 5.3892 7.42366 5.3692 7.41373 5.39555C7.40978 5.40604 7.40204 5.42245 7.38763 5.44372C7.38049 5.45426 7.37177 5.4659 7.36111 5.47862C7.35578 5.48499 7.34995 5.49163 7.34358 5.49856C7.34039 5.50202 7.33706 5.50556 7.33358 5.50916C7.33184 5.51097 7.33007 5.51279 7.32826 5.51463C7.32735 5.51556 7.32643 5.51648 7.32551 5.51741C7.32505 5.51788 7.32434 5.51858 7.32411 5.51881C7.32341 5.51951 7.3227 5.52022 6.79388 4.98838ZM8.04216 7.66482L7.51334 8.19666C8.54784 9.22528 9.35962 9.66108 10.0131 9.76131C10.3492 9.81287 10.6305 9.77293 10.8521 9.69036C10.9604 9.65004 11.0482 9.60188 11.1164 9.55614C11.1505 9.53334 11.1795 9.51125 11.2038 9.49114C11.2159 9.48108 11.2269 9.47152 11.2367 9.46259C11.2416 9.45813 11.2462 9.45382 11.2505 9.44969C11.2527 9.44763 11.2548 9.44561 11.2568 9.44363C11.2578 9.44265 11.2588 9.44167 11.2598 9.44071C11.2603 9.44023 11.261 9.43951 11.2613 9.43927C11.262 9.43856 11.2627 9.43785 10.7339 8.90601C10.2051 8.37418 10.2058 8.37347 10.2065 8.37278C10.2067 8.37255 10.2074 8.37185 10.2079 8.37139C10.2088 8.37047 10.2098 8.36956 10.2107 8.36866C10.2125 8.36685 10.2144 8.36509 10.2162 8.36336C10.2198 8.35991 10.2234 8.3566 10.2268 8.35344C10.2338 8.34711 10.2405 8.34133 10.2468 8.33605C10.2596 8.3255 10.2712 8.31691 10.2816 8.30991C10.3027 8.29576 10.3187 8.28836 10.3285 8.28472C10.3533 8.27549 10.331 8.29253 10.2405 8.27865C10.0406 8.24798 9.50649 8.06318 8.57098 7.13299L8.04216 7.66482ZM6.24892 1.90605L6.84931 1.45658C6.08432 0.434718 4.57139 0.264141 3.64556 1.18471L4.17438 1.71655L4.7032 2.24839C4.94338 2.00957 5.39622 2.0185 5.64852 2.35552L6.24892 1.90605ZM2.66867 3.8304L3.41746 3.78785C3.40954 3.6484 3.47142 3.47318 3.6568 3.28885L3.12798 2.75701L2.59916 2.22517C2.20638 2.61572 1.88082 3.18572 1.91988 3.87296L2.66867 3.8304ZM13.3342 12.197L12.8053 11.6651C12.6509 11.8187 12.5057 11.8851 12.3813 11.8967L12.4509 12.6434L12.5205 13.3902C13.0833 13.3377 13.5358 13.0541 13.863 12.7288L13.3342 12.197ZM6.98509 4.79825L7.51391 5.33009C8.2629 4.58536 8.31388 3.41292 7.68997 2.57952L7.08958 3.02899L6.48918 3.47846C6.68719 3.74296 6.64936 4.07443 6.45628 4.26642L6.98509 4.79825ZM13.9223 9.08532L13.5641 9.74425C13.973 9.96651 14.0102 10.4671 13.7524 10.7235L14.2812 11.2553L14.81 11.7871C15.8307 10.7723 15.5075 9.0934 14.2805 8.42639L13.9223 9.08532ZM11.0375 8.60411L11.5663 9.13595C11.7405 8.96279 12.0314 8.91106 12.2904 9.05187L12.6486 8.39294L13.0068 7.73401C12.1917 7.29092 11.174 7.41071 10.5087 8.07227L11.0375 8.60411Z" fill="white"/>
</svg>
