<svg width="16" height="16" viewBox="0 0 16 16" fill="none" xmlns="http://www.w3.org/2000/svg">
<path d="M10.7339 8.90618L10.2051 8.37434V8.37434L10.7339 8.90618ZM11.0375 8.60427L11.5663 9.13611V9.13611L11.0375 8.60427ZM12.6486 8.3931L12.2904 9.05203H12.2904L12.6486 8.3931ZM13.9223 9.08548L13.5641 9.74442L13.9223 9.08548ZM14.2812 11.2555L14.81 11.7873V11.7873L14.2812 11.2555ZM13.3342 12.1971L12.8053 11.6653V11.6653L13.3342 12.1971ZM12.4509 12.6436L12.5205 13.3904H12.5205L12.4509 12.6436ZM5.87699 9.81787L6.40581 9.28603L5.87699 9.81787ZM2.66867 3.83057L1.91988 3.87312V3.87312L2.66867 3.83057ZM6.98509 4.79842L7.51391 5.33026V5.33026L6.98509 4.79842ZM7.08958 3.02915L7.68997 2.57968V2.57968L7.08958 3.02915ZM6.24892 1.90622L5.64852 2.35569L5.64852 2.35569L6.24892 1.90622ZM4.17438 1.71672L4.7032 2.24855V2.24855L4.17438 1.71672ZM3.12798 2.75717L2.59916 2.22534L2.59916 2.22534L3.12798 2.75717ZM8.04216 7.66499L8.57098 7.13315L8.04216 7.66499ZM10.7339 8.90618L11.2627 9.43802L11.5663 9.13611L11.0375 8.60427L10.5087 8.07243L10.2051 8.37434L10.7339 8.90618ZM12.6486 8.3931L12.2904 9.05203L13.5641 9.74442L13.9223 9.08548L14.2805 8.42655L13.0068 7.73417L12.6486 8.3931ZM14.2812 11.2555L13.7524 10.7236L12.8053 11.6653L13.3342 12.1971L13.863 12.729L14.81 11.7873L14.2812 11.2555ZM12.4509 12.6436L12.3813 11.8968C11.4746 11.9814 9.05167 11.9169 6.40581 9.28603L5.87699 9.81787L5.34817 10.3497C8.36468 13.3491 11.2547 13.5084 12.5205 13.3904L12.4509 12.6436ZM5.87699 9.81787L6.40581 9.28603C3.86931 6.76394 3.46724 4.66387 3.41746 3.78801L2.66867 3.83057L1.91988 3.87312C1.9903 5.11221 2.54514 7.56259 5.34817 10.3497L5.87699 9.81787ZM6.79388 4.98854L7.3227 5.52038L7.51391 5.33026L6.98509 4.79842L6.45628 4.26658L6.26507 4.45671L6.79388 4.98854ZM7.08958 3.02915L7.68997 2.57968L6.84931 1.45675L6.24892 1.90622L5.64852 2.35569L6.48918 3.47862L7.08958 3.02915ZM4.17438 1.71672L3.64556 1.18488L2.59916 2.22534L3.12798 2.75717L3.6568 3.28901L4.7032 2.24855L4.17438 1.71672ZM6.79388 4.98854C6.26507 4.45671 6.26435 4.45741 6.26364 4.45813C6.2634 4.45837 6.26268 4.45909 6.26219 4.45958C6.26122 4.46055 6.26024 4.46154 6.25925 4.46255C6.25726 4.46457 6.25523 4.46666 6.25315 4.46881C6.249 4.47313 6.24467 4.47772 6.24017 4.4826C6.23118 4.49236 6.22154 4.50328 6.2114 4.51537C6.19114 4.53956 6.16884 4.56854 6.14581 4.60252C6.09963 4.67069 6.05089 4.75847 6.01006 4.86684C5.92637 5.08896 5.88595 5.3708 5.93814 5.70719C6.03947 6.36034 6.47936 7.16871 7.51334 8.19683L8.04216 7.66499L8.57098 7.13315C7.63496 6.20244 7.45072 5.6726 7.42041 5.47723C7.40677 5.38936 7.42366 5.36937 7.41373 5.39571C7.40978 5.4062 7.40204 5.42262 7.38763 5.44389C7.38049 5.45442 7.37177 5.46607 7.36111 5.47879C7.35578 5.48515 7.34995 5.49179 7.34358 5.49872C7.34039 5.50218 7.33706 5.50572 7.33358 5.50933C7.33184 5.51113 7.33007 5.51296 7.32826 5.5148C7.32735 5.51572 7.32643 5.51665 7.32551 5.51758C7.32505 5.51804 7.32434 5.51874 7.32411 5.51897C7.32341 5.51968 7.3227 5.52038 6.79388 4.98854ZM8.04216 7.66499L7.51334 8.19683C8.54784 9.22545 9.35962 9.66124 10.0131 9.76147C10.3492 9.81303 10.6305 9.77309 10.8521 9.69052C10.9604 9.65021 11.0482 9.60204 11.1164 9.55631C11.1505 9.53351 11.1795 9.51141 11.2038 9.4913C11.2159 9.48125 11.2269 9.47168 11.2367 9.46275C11.2416 9.45829 11.2462 9.45398 11.2505 9.44986C11.2527 9.44779 11.2548 9.44577 11.2568 9.4438C11.2578 9.44281 11.2588 9.44184 11.2598 9.44087C11.2603 9.44039 11.261 9.43968 11.2613 9.43944C11.262 9.43873 11.2627 9.43802 10.7339 8.90618C10.2051 8.37434 10.2058 8.37364 10.2065 8.37294C10.2067 8.37271 10.2074 8.37201 10.2079 8.37155C10.2088 8.37063 10.2098 8.36972 10.2107 8.36882C10.2125 8.36702 10.2144 8.36525 10.2162 8.36353C10.2198 8.36007 10.2234 8.35677 10.2268 8.3536C10.2338 8.34727 10.2405 8.34149 10.2468 8.33622C10.2596 8.32566 10.2712 8.31707 10.2816 8.31007C10.3027 8.29593 10.3187 8.28853 10.3285 8.28488C10.3533 8.27566 10.331 8.2927 10.2405 8.27881C10.0406 8.24815 9.50649 8.06335 8.57098 7.13315L8.04216 7.66499ZM6.24892 1.90622L6.84931 1.45675C6.08432 0.434882 4.57139 0.264305 3.64556 1.18488L4.17438 1.71672L4.7032 2.24855C4.94338 2.00973 5.39622 2.01867 5.64852 2.35569L6.24892 1.90622ZM2.66867 3.83057L3.41746 3.78801C3.40954 3.64857 3.47142 3.47334 3.6568 3.28901L3.12798 2.75717L2.59916 2.22534C2.20638 2.61589 1.88082 3.18588 1.91988 3.87312L2.66867 3.83057ZM13.3342 12.1971L12.8053 11.6653C12.6509 11.8188 12.5057 11.8852 12.3813 11.8968L12.4509 12.6436L12.5205 13.3904C13.0833 13.3379 13.5358 13.0543 13.863 12.729L13.3342 12.1971ZM6.98509 4.79842L7.51391 5.33026C8.2629 4.58552 8.31388 3.41309 7.68997 2.57968L7.08958 3.02915L6.48918 3.47862C6.68719 3.74312 6.64936 4.07459 6.45628 4.26658L6.98509 4.79842ZM13.9223 9.08548L13.5641 9.74442C13.973 9.96667 14.0102 10.4673 13.7524 10.7236L14.2812 11.2555L14.81 11.7873C15.8307 10.7724 15.5075 9.09356 14.2805 8.42655L13.9223 9.08548ZM11.0375 8.60427L11.5663 9.13611C11.7405 8.96296 12.0314 8.91123 12.2904 9.05203L12.6486 8.3931L13.0068 7.73417C12.1917 7.29108 11.174 7.41087 10.5087 8.07243L11.0375 8.60427Z" fill="white"/>
</svg>
