<svg width="36" height="36" viewBox="0 0 36 36" fill="none" xmlns="http://www.w3.org/2000/svg">
<path d="M11.1051 21.6599C6.66912 22.7357 3.375 26.7331 3.375 31.5C3.375 32.1213 3.87869 32.625 4.5 32.625H22.5C23.1213 32.625 23.625 32.1213 23.625 31.5C23.625 26.7331 20.3308 22.7357 15.8949 21.6599C18.2289 20.7132 19.875 18.4238 19.875 15.75C19.875 12.2292 17.0208 9.375 13.5 9.375C9.97919 9.375 7.125 12.2292 7.125 15.75C7.125 18.4238 8.77108 20.7132 11.1051 21.6599Z" fill="#141B34"/>
<path d="M16.4785 7.65291C19.7745 8.86553 22.1254 12.0332 22.1254 15.75C22.1254 17.7836 21.4219 19.6512 20.2464 21.1244C22.2853 22.4525 23.9088 24.3649 24.8784 26.625H31.5004C32.1219 26.625 32.6254 26.1213 32.6254 25.5C32.6254 20.7331 29.3314 16.7357 24.8953 15.6599C27.2293 14.7131 28.8754 12.4238 28.8754 9.75C28.8754 6.22919 26.0214 3.375 22.5004 3.375C19.7143 3.375 17.3457 5.16231 16.4785 7.65291Z" fill="#141B34"/>
</svg>
