<svg width="28" height="28" viewBox="0 0 28 28" fill="none" xmlns="http://www.w3.org/2000/svg">
<path fill-rule="evenodd" clip-rule="evenodd" d="M18.8899 6.06891C19.5865 5.94284 20.3203 5.9437 20.8782 6.4732C20.9045 6.49821 20.9303 6.52402 20.9553 6.55035C21.4848 7.10828 21.4857 7.84196 21.3596 8.53863C21.2324 9.24126 20.9291 10.1465 20.5598 11.2545L18.3098 18.0045C18.0466 18.7941 17.8839 19.2893 17.7444 19.5552C16.4332 22.0526 12.8583 22.0525 11.5471 19.5552C11.4075 19.2893 11.2449 18.7942 10.9817 18.0045C10.9232 17.8291 10.9027 17.7682 10.8811 17.7144C10.6677 17.1828 10.2457 16.7609 9.7141 16.5474C9.66032 16.5259 9.59933 16.5053 9.42406 16.4468C8.6345 16.1837 8.13924 16.021 7.87328 15.8814C5.3759 14.5703 5.3759 10.9953 7.87328 9.68414C8.13924 9.5446 8.63452 9.38189 9.42406 9.11871L16.1741 6.86871C17.2819 6.49942 18.1873 6.19614 18.8899 6.06891ZM19.9143 7.48883C19.8629 7.44001 19.7253 7.33997 19.1399 7.44586C18.5601 7.5508 17.7694 7.81284 16.6174 8.19684L9.86742 10.4468C8.99625 10.7372 8.65941 10.8522 8.52367 10.9234C7.0255 11.7101 7.02549 13.8554 8.52367 14.6421C8.6594 14.7133 8.99621 14.8283 9.86742 15.1187C10.0266 15.1718 10.1337 15.2077 10.2356 15.2486C11.1216 15.6043 11.8242 16.3069 12.1799 17.1929C12.2208 17.2948 12.2567 17.4019 12.3098 17.5611C12.6003 18.4327 12.7152 18.7693 12.7864 18.9048C13.5731 20.4029 15.7184 20.403 16.5051 18.9048C16.5763 18.7692 16.6912 18.4325 16.9817 17.5611L19.2317 10.8111C19.6157 9.65902 19.8777 8.86846 19.9827 8.28863C20.0885 7.7035 19.9886 7.56575 19.9397 7.51422C19.9315 7.50558 19.9229 7.49704 19.9143 7.48883Z" fill="#222222"/>
</svg>
