<svg width="8" height="8" viewBox="0 0 8 8" fill="none" xmlns="http://www.w3.org/2000/svg">
<g clip-path="url(#paint0_diamond_2278_1777_clip_path)" data-figma-skip-parse="true"><g transform="matrix(0 0.004 -0.004 0 4 4)"><rect x="0" y="0" width="1250" height="1250" fill="url(#paint0_diamond_2278_1777)" opacity="1" shape-rendering="crispEdges"/><rect x="0" y="0" width="1250" height="1250" transform="scale(1 -1)" fill="url(#paint0_diamond_2278_1777)" opacity="1" shape-rendering="crispEdges"/><rect x="0" y="0" width="1250" height="1250" transform="scale(-1 1)" fill="url(#paint0_diamond_2278_1777)" opacity="1" shape-rendering="crispEdges"/><rect x="0" y="0" width="1250" height="1250" transform="scale(-1)" fill="url(#paint0_diamond_2278_1777)" opacity="1" shape-rendering="crispEdges"/></g></g><path d="M4 0L5.87808 2.12192L8 4L5.87808 5.87808L4 8L2.12192 5.87808L0 4L2.12192 2.12192L4 0Z" data-figma-gradient-fill="{&#34;type&#34;:&#34;GRADIENT_DIAMOND&#34;,&#34;stops&#34;:[{&#34;color&#34;:{&#34;r&#34;:1.0,&#34;g&#34;:0.59615385532379150,&#34;b&#34;:0.63142430782318115,&#34;a&#34;:1.0},&#34;position&#34;:0.0},{&#34;color&#34;:{&#34;r&#34;:0.94117647409439087,&#34;g&#34;:0.043137256056070328,&#34;b&#34;:0.12156862765550613,&#34;a&#34;:1.0},&#34;position&#34;:1.0}],&#34;stopsVar&#34;:[{&#34;color&#34;:{&#34;r&#34;:1.0,&#34;g&#34;:0.59615385532379150,&#34;b&#34;:0.63142430782318115,&#34;a&#34;:1.0},&#34;position&#34;:0.0},{&#34;color&#34;:{&#34;r&#34;:0.94117647409439087,&#34;g&#34;:0.043137256056070328,&#34;b&#34;:0.12156862765550613,&#34;a&#34;:1.0},&#34;position&#34;:1.0}],&#34;transform&#34;:{&#34;m00&#34;:4.8985874103406714e-16,&#34;m01&#34;:-8.0,&#34;m02&#34;:8.0,&#34;m10&#34;:8.0,&#34;m11&#34;:4.8985874103406714e-16,&#34;m12&#34;:-4.8985874103406714e-16},&#34;opacity&#34;:1.0,&#34;blendMode&#34;:&#34;NORMAL&#34;,&#34;visible&#34;:true}"/>
<defs>
<clipPath id="paint0_diamond_2278_1777_clip_path"><path d="M4 0L5.87808 2.12192L8 4L5.87808 5.87808L4 8L2.12192 5.87808L0 4L2.12192 2.12192L4 0Z"/></clipPath><linearGradient id="paint0_diamond_2278_1777" x1="0" y1="0" x2="500" y2="500" gradientUnits="userSpaceOnUse">
<stop stop-color="#FF98A1"/>
<stop offset="1" stop-color="#F00B1F"/>
</linearGradient>
</defs>
</svg>
