<svg width="20" height="20" viewBox="0 0 20 20" fill="none" xmlns="http://www.w3.org/2000/svg">
<path d="M10 3.22815C4.9 3.22815 0.75 7.37815 0.75 12.4781C0.75 12.65 0.890625 12.7906 1.0625 12.7906H3.5C3.675 12.7906 3.8125 12.65 3.8125 12.4781C3.8125 9.06565 6.5875 6.29065 10 6.29065C13.4125 6.29065 16.1875 9.06565 16.1875 12.4781C16.1875 12.65 16.325 12.7906 16.5 12.7906H18.9375C19.1094 12.7906 19.25 12.65 19.25 12.4781C19.25 7.37815 15.1 3.22815 10 3.22815ZM3.79375 9.67815L2.0125 9.22815C2.58588 7.82435 3.51936 6.59661 4.71875 5.66877L5.84375 7.08752C4.95681 7.76837 4.25247 8.65845 3.79375 9.67815ZM10.3094 5.67502C10.3125 5.66877 10.3125 5.6594 10.3125 5.65315V3.8594C11.9594 3.91877 13.4875 4.44065 14.775 5.30315L13.6438 6.72815C12.6719 6.10627 11.5313 5.72815 10.3094 5.67502ZM16.8031 12.1656C16.7719 11.5031 16.6469 10.8625 16.4406 10.2625L18.2063 9.81877C18.4469 10.5625 18.5906 11.35 18.6188 12.1656H16.8031Z" fill="#212121"/>
<path d="M12.2438 7.19694C12.176 7.16805 12.1002 7.16412 12.0298 7.18587C11.9594 7.20761 11.899 7.25361 11.8594 7.31569L9.16875 11.4907C9.00937 11.6188 8.88125 11.7876 8.79687 11.9876C8.72886 12.1458 8.69301 12.316 8.6914 12.4882C8.68979 12.6604 8.72246 12.8312 8.7875 12.9907C8.88565 13.2318 9.05342 13.4381 9.26939 13.5834C9.48535 13.7287 9.73972 13.8063 10 13.8063C10.525 13.8063 11 13.4938 11.2031 13.0063C11.2849 12.8131 11.3192 12.603 11.3031 12.3938L12.425 7.55631C12.4594 7.40944 12.3812 7.25631 12.2438 7.19694ZM10.6281 12.7626C10.4844 13.1001 10.075 13.2719 9.73438 13.1282C9.56562 13.0563 9.43437 12.9219 9.36875 12.7532C9.33444 12.6704 9.31703 12.5816 9.31757 12.4919C9.31811 12.4023 9.33657 12.3137 9.37187 12.2313C9.47812 11.9782 9.725 11.8157 10 11.8157C10.0906 11.8157 10.1812 11.8344 10.2656 11.8688C10.6125 12.0157 10.775 12.4188 10.6281 12.7626ZM14.3438 14.8938V16.4594C14.3438 16.6313 14.2031 16.7719 14.0312 16.7719H5.96875C5.79688 16.7719 5.65625 16.6313 5.65625 16.4594V14.8938C5.65625 14.7219 5.79688 14.5813 5.96875 14.5813H14.0312C14.2031 14.5813 14.3438 14.7219 14.3438 14.8938Z" fill="#212121"/>
</svg>
