<svg width="36" height="36" viewBox="0 0 36 36" fill="none" xmlns="http://www.w3.org/2000/svg">
<path d="M24.2505 4.875C25.9155 4.8752 27.4171 5.87655 28.0576 7.41357L30.482 13.2319L32.3247 11.8506C32.8217 11.4779 33.5265 11.5781 33.8994 12.0747C34.2721 12.5716 34.1719 13.2765 33.6753 13.6494L31.5264 15.2622L33.4321 18.1201C33.8838 18.7977 34.125 19.5939 34.125 20.4083V30C34.125 30.6213 33.6213 31.125 33 31.125H29.625C29.0037 31.125 28.5 30.6213 28.5 30V26.625H7.5V30C7.5 30.6213 6.99632 31.125 6.375 31.125H3C2.37868 31.125 1.875 30.6213 1.875 30V20.4083C1.87503 19.5939 2.11615 18.7977 2.56787 18.1201L4.47363 15.2607L2.3247 13.6494C1.82813 13.2765 1.72793 12.5716 2.10059 12.0747C2.47347 11.5781 3.1784 11.4779 3.6753 11.8506L5.51806 13.2319L7.94238 7.41357C8.58281 5.87655 10.0844 4.8752 11.7495 4.875H24.2505ZM9 19.5C8.17158 19.5 7.5 20.1715 7.5 21V21.0147C7.5 21.8431 8.17158 22.5147 9 22.5147C9.82842 22.5147 10.5 21.8431 10.5 21.0147V21C10.5 20.1715 9.82842 19.5 9 19.5ZM27 19.5C26.1716 19.5 25.5 20.1715 25.5 21V21.0147C25.5 21.8431 26.1716 22.5147 27 22.5147C27.8284 22.5147 28.5 21.8431 28.5 21.0147V21C28.5 20.1715 27.8284 19.5 27 19.5ZM11.7495 7.125C10.9926 7.12506 10.3106 7.58062 10.0195 8.27929L7.54101 14.2251L9.1377 14.625H26.8608L28.459 14.2251L25.9804 8.27929C25.6893 7.58058 25.0059 7.125 24.249 7.125H11.7495Z" fill="#141B34"/>
</svg>
