<svg width="14" height="14" viewBox="0 0 14 14" fill="none" xmlns="http://www.w3.org/2000/svg">
<path d="M5.33943 3.15472C6.07831 1.82924 6.44775 1.1665 7.00008 1.1665C7.55242 1.1665 7.92186 1.82924 8.66074 3.15472L8.85189 3.49764C9.06186 3.8743 9.16684 4.06263 9.33053 4.18689C9.49422 4.31115 9.69809 4.35728 10.1058 4.44953L10.477 4.53352C11.9118 4.85816 12.6292 5.02048 12.7999 5.56935C12.9706 6.11821 12.4815 6.69013 11.5034 7.83396L11.2503 8.12988C10.9723 8.45492 10.8334 8.61745 10.7708 8.81851C10.7083 9.01957 10.7293 9.2364 10.7713 9.67008L10.8096 10.0649C10.9575 11.591 11.0314 12.3541 10.5846 12.6933C10.1377 13.0325 9.46602 12.7232 8.12261 12.1047L7.77505 11.9447C7.39329 11.7689 7.20241 11.681 7.00008 11.681C6.79775 11.681 6.60687 11.7689 6.22512 11.9447L5.87756 12.1047C4.53414 12.7232 3.86243 13.0325 3.41558 12.6933C2.96874 12.3541 3.04268 11.591 3.19056 10.0649L3.22882 9.67008C3.27085 9.2364 3.29186 9.01957 3.22933 8.81851C3.16681 8.61745 3.02783 8.45492 2.74987 8.12988L2.49681 7.83396C1.51864 6.69013 1.02956 6.11821 1.20024 5.56935C1.37092 5.02048 2.08833 4.85816 3.52314 4.53352L3.89435 4.44953C4.30208 4.35728 4.50594 4.31115 4.66963 4.18689C4.83332 4.06263 4.9383 3.8743 5.14827 3.49764L5.33943 3.15472Z" fill="white"/>
</svg>
