<svg width="16" height="16" viewBox="0 0 16 16" fill="none" xmlns="http://www.w3.org/2000/svg">
<path fill-rule="evenodd" clip-rule="evenodd" d="M14.5455 4.0974C14.0904 4.29904 13.6022 4.43579 13.0892 4.49684C13.613 4.18316 14.014 3.68562 14.204 3.09459C13.7127 3.38508 13.1703 3.59601 12.5924 3.71035C12.1296 3.21667 11.4714 2.90918 10.7413 2.90918C9.34059 2.90918 8.20489 4.04488 8.20489 5.4448C8.20489 5.64334 8.2273 5.83726 8.27057 6.02269C6.16298 5.91684 4.29411 4.90708 3.0433 3.37272C2.82465 3.74665 2.70027 4.18237 2.70027 4.64748C2.70027 5.52746 3.14837 6.30391 3.82825 6.75817C3.41259 6.74427 3.02166 6.62993 2.67942 6.43987V6.47154C2.67942 7.69995 3.55399 8.72516 4.71362 8.95849C4.50116 9.01566 4.27712 9.04734 4.04534 9.04734C3.88156 9.04734 3.72318 9.03112 3.56788 9.00021C3.89081 10.0084 4.8272 10.7416 5.93663 10.7617C5.06902 11.4416 3.97504 11.8456 2.78681 11.8456C2.58209 11.8456 2.38043 11.8333 2.18188 11.8109C3.30445 12.5317 4.63716 12.952 6.06952 12.952C10.7351 12.952 13.2854 9.08752 13.2854 5.73607L13.2769 5.40773C13.7752 5.05231 14.2063 4.60577 14.5455 4.0974Z" fill="#F00B1F"/>
<mask id="mask0_2082_6106" style="mask-type:luminance" maskUnits="userSpaceOnUse" x="2" y="2" width="13" height="11">
<path fill-rule="evenodd" clip-rule="evenodd" d="M14.5455 4.0974C14.0904 4.29904 13.6022 4.43579 13.0892 4.49684C13.613 4.18316 14.014 3.68562 14.204 3.09459C13.7127 3.38508 13.1703 3.59601 12.5924 3.71035C12.1296 3.21667 11.4714 2.90918 10.7413 2.90918C9.34059 2.90918 8.20489 4.04488 8.20489 5.4448C8.20489 5.64334 8.2273 5.83726 8.27057 6.02269C6.16298 5.91684 4.29411 4.90708 3.0433 3.37272C2.82465 3.74665 2.70027 4.18237 2.70027 4.64748C2.70027 5.52746 3.14837 6.30391 3.82825 6.75817C3.41259 6.74427 3.02166 6.62993 2.67942 6.43987V6.47154C2.67942 7.69995 3.55399 8.72516 4.71362 8.95849C4.50116 9.01566 4.27712 9.04734 4.04534 9.04734C3.88156 9.04734 3.72318 9.03112 3.56788 9.00021C3.89081 10.0084 4.8272 10.7416 5.93663 10.7617C5.06902 11.4416 3.97504 11.8456 2.78681 11.8456C2.58209 11.8456 2.38043 11.8333 2.18188 11.8109C3.30445 12.5317 4.63716 12.952 6.06952 12.952C10.7351 12.952 13.2854 9.08752 13.2854 5.73607L13.2769 5.40773C13.7752 5.05231 14.2063 4.60577 14.5455 4.0974Z" fill="white"/>
</mask>
<g mask="url(#mask0_2082_6106)">
</g>
</svg>
